<svg
            height="100%"
            viewBox="0 0 26 30"
            fill="none"
            xmlns="http://www.w3.org/2000/svg"
          >
            <path
              fill-rule="evenodd"
              clip-rule="evenodd"
              d="M17.7869 4.90146C18.9095 3.62042 19.4727 2.23639 19.4727 0.754088C19.4727 0.557487 19.4632 0.359294 19.4404 0.161133C18.6583 0.200144 17.8268 0.427955 16.9478 0.839893C16.0668 1.25807 15.3403 1.78229 14.7691 2.41274C13.625 3.65792 12.9808 5.18083 12.9808 6.60384C12.9808 6.80051 12.9939 6.98768 13.0165 7.16551C14.7935 7.30437 16.4321 6.42436 17.7869 4.90146ZM23.7632 26.1242C24.4026 25.2478 24.9544 24.2947 25.4205 23.2591C25.6127 22.82 25.7935 22.3627 25.9647 21.8852C25.1751 21.5668 24.4654 21.1186 23.8298 20.5386C22.4275 19.289 21.714 17.7153 21.6931 15.8241C21.6702 13.3961 22.8176 11.5035 25.137 10.1522C23.8413 8.38118 21.8929 7.39818 19.2994 7.19693C18.3424 7.1188 17.1741 7.31713 15.7898 7.7961C14.3261 8.31258 13.4626 8.57164 13.2078 8.57164C12.867 8.57164 12.0898 8.35008 10.8793 7.91319C9.66532 7.47776 8.68845 7.2562 7.94353 7.2562C6.58213 7.27798 5.31795 7.61827 4.14796 8.28605C2.97797 8.95383 2.04316 9.86347 1.34048 11.0166C0.446381 12.4523 0 14.1654 0 16.1518C0 17.8858 0.331076 19.6769 0.991515 21.5266C1.60819 23.239 2.39535 24.7411 3.35281 26.0364C4.24519 27.2493 4.99011 28.1056 5.58567 28.605C6.51877 29.4393 7.45358 29.8363 8.39144 29.7979C9.00811 29.7778 9.81468 29.5747 10.8159 29.185C11.8156 28.7971 12.7502 28.605 13.6217 28.605C14.4526 28.605 15.3613 28.7971 16.3502 29.185C17.3358 29.5747 18.1825 29.7668 18.8846 29.7668C19.8626 29.7448 20.776 29.3588 21.6284 28.605C22.1783 28.1458 22.8918 27.3189 23.7632 26.1242Z"
              fill="white"
            />
          </svg>